<?xml version="1.0" encoding="iso-8859-1"?>
<!-- Generator: Adobe Illustrator 19.0.0, SVG Export Plug-In . SVG Version: 6.00 Build 0)  -->
<svg version="1.1" id="Capa_1" xmlns="http://www.w3.org/2000/svg" xmlns:xlink="http://www.w3.org/1999/xlink" x="0px" y="0px"
	 viewBox="0 0 512 512" style="enable-background:new 0 0 512 512;" xml:space="preserve">
<circle style="fill:#34ABE0;" cx="256" cy="256" r="256"/>
<circle style="fill:#FFD15C;" cx="142.05" cy="162.72" r="136.32"/>
<path style="fill:#F2F2F2;" d="M512,256.001c0,57.657-19.059,110.873-51.231,153.672c-13.74,5.757-28.818,8.934-44.638,8.934
	H150.687c-48.765,0-88.293-39.539-88.293-88.293c0-17.7,5.214-34.178,14.2-48.002c12.988-20.041,33.917-34.461,58.305-38.86
	c0.313-73.56,58.859-133.37,131.938-135.669c1.452-0.042,2.894-0.063,4.347-0.063c55.672,0,103.528,33.405,124.697,81.23
	c6.572-1.149,13.343-1.787,20.25-1.787c39.445,0,74.292,19.738,95.179,49.894C511.77,243.316,512,249.627,512,256.001z"/>
<path style="fill:#FCE4B4;" d="M278.361,162.718c0,75.282-61.029,136.311-136.311,136.311c-23.723,0-46.035-6.05-65.454-16.716
	c12.986-20.04,33.911-34.461,58.304-38.861c0.311-73.56,58.854-133.37,131.935-135.666
	C274.247,124.599,278.361,143.18,278.361,162.718z"/>
<g>
</g>
<g>
</g>
<g>
</g>
<g>
</g>
<g>
</g>
<g>
</g>
<g>
</g>
<g>
</g>
<g>
</g>
<g>
</g>
<g>
</g>
<g>
</g>
<g>
</g>
<g>
</g>
<g>
</g>
</svg>
